<mxfile host="65bd71144e">
    <diagram id="UW8dDQaEm0ERx2WbUIJf" name="Page-1">
        <mxGraphModel dx="710" dy="536" grid="1" gridSize="10" guides="1" tooltips="1" connect="1" arrows="1" fold="1" page="1" pageScale="1" pageWidth="850" pageHeight="1100" math="0" shadow="0">
            <root>
                <mxCell id="0"/>
                <mxCell id="1" parent="0"/>
                <mxCell id="2" value="Persona" style="swimlane;fontStyle=0;childLayout=stackLayout;horizontal=1;startSize=30;horizontalStack=0;resizeParent=1;resizeParentMax=0;resizeLast=0;collapsible=1;marginBottom=0;whiteSpace=wrap;html=1;fillColor=#647687;fontColor=#ffffff;strokeColor=#314354;strokeWidth=5;" parent="1" vertex="1">
                    <mxGeometry x="270" y="230" width="140" height="200" as="geometry"/>
                </mxCell>
                <mxCell id="17" value="PK id_persona" style="text;strokeColor=#314354;fillColor=#647687;align=left;verticalAlign=middle;spacingLeft=4;spacingRight=4;overflow=hidden;points=[[0,0.5],[1,0.5]];portConstraint=eastwest;rotatable=0;whiteSpace=wrap;html=1;fontColor=#ffffff;strokeWidth=5;" vertex="1" parent="2">
                    <mxGeometry y="30" width="140" height="30" as="geometry"/>
                </mxCell>
                <mxCell id="4" value="UK cedula&lt;br&gt;UK correo&lt;br&gt;&amp;nbsp; &amp;nbsp; &amp;nbsp; primer nombre&lt;br&gt;&amp;nbsp; &amp;nbsp; &amp;nbsp; segundo nombre&lt;br&gt;&amp;nbsp; &amp;nbsp; &amp;nbsp; primer apellido&lt;br&gt;&amp;nbsp; &amp;nbsp; &amp;nbsp; segundo apellido&lt;br&gt;&amp;nbsp; &amp;nbsp; &amp;nbsp; fecha_nacimiento&lt;br&gt;&amp;nbsp; &amp;nbsp; &amp;nbsp; direccion&lt;br&gt;&amp;nbsp; &amp;nbsp; &amp;nbsp; rol" style="text;strokeColor=#314354;fillColor=#647687;align=left;verticalAlign=middle;spacingLeft=4;spacingRight=4;overflow=hidden;points=[[0,0.5],[1,0.5]];portConstraint=eastwest;rotatable=0;whiteSpace=wrap;html=1;fontColor=#ffffff;strokeWidth=5;" parent="2" vertex="1">
                    <mxGeometry y="60" width="140" height="140" as="geometry"/>
                </mxCell>
                <mxCell id="6" value="Usuario" style="swimlane;fontStyle=0;childLayout=stackLayout;horizontal=1;startSize=30;horizontalStack=0;resizeParent=1;resizeParentMax=0;resizeLast=0;collapsible=1;marginBottom=0;whiteSpace=wrap;html=1;fillColor=#647687;fontColor=#ffffff;strokeColor=#314354;strokeWidth=5;" parent="1" vertex="1">
                    <mxGeometry x="650" y="230" width="140" height="130" as="geometry"/>
                </mxCell>
                <mxCell id="7" value="PK id_usuario" style="text;strokeColor=#314354;fillColor=#647687;align=left;verticalAlign=middle;spacingLeft=4;spacingRight=4;overflow=hidden;points=[[0,0.5],[1,0.5]];portConstraint=eastwest;rotatable=0;whiteSpace=wrap;html=1;fontColor=#ffffff;strokeWidth=5;" parent="6" vertex="1">
                    <mxGeometry y="30" width="140" height="30" as="geometry"/>
                </mxCell>
                <mxCell id="8" value="UK nombre_usuario&lt;br&gt;FK id_persona&lt;br&gt;&amp;nbsp; &amp;nbsp; &amp;nbsp; seccion&lt;br&gt;&amp;nbsp; &amp;nbsp; &amp;nbsp; fecha_alta" style="text;strokeColor=#314354;fillColor=#647687;align=left;verticalAlign=middle;spacingLeft=4;spacingRight=4;overflow=hidden;points=[[0,0.5],[1,0.5]];portConstraint=eastwest;rotatable=0;whiteSpace=wrap;html=1;fontColor=#ffffff;strokeWidth=5;" parent="6" vertex="1">
                    <mxGeometry y="60" width="140" height="70" as="geometry"/>
                </mxCell>
                <mxCell id="13" value="" style="endArrow=none;html=1;exitX=1;exitY=0.5;exitDx=0;exitDy=0;fillColor=#647687;strokeColor=#314354;strokeWidth=5;" edge="1" parent="1" source="17">
                    <mxGeometry width="50" height="50" relative="1" as="geometry">
                        <mxPoint x="480" y="450" as="sourcePoint"/>
                        <mxPoint x="650" y="275" as="targetPoint"/>
                    </mxGeometry>
                </mxCell>
                <mxCell id="9" value="login" style="swimlane;fontStyle=0;childLayout=stackLayout;horizontal=1;startSize=30;horizontalStack=0;resizeParent=1;resizeParentMax=0;resizeLast=0;collapsible=1;marginBottom=0;whiteSpace=wrap;html=1;fillColor=#647687;fontColor=#ffffff;strokeColor=#314354;strokeWidth=5;" parent="1" vertex="1">
                    <mxGeometry x="460" y="230" width="140" height="130" as="geometry"/>
                </mxCell>
                <mxCell id="11" value="PK id_usuario&lt;br&gt;PK id_persona&lt;br&gt;&amp;nbsp; &amp;nbsp; &amp;nbsp; fecha_ingreso&lt;br&gt;&amp;nbsp; &amp;nbsp; &amp;nbsp; hora_ingreso&lt;br&gt;&amp;nbsp; &amp;nbsp; &amp;nbsp; hora_salida&lt;br&gt;&amp;nbsp; &amp;nbsp; &amp;nbsp; fecha_salida" style="text;strokeColor=#314354;fillColor=#647687;align=left;verticalAlign=middle;spacingLeft=4;spacingRight=4;overflow=hidden;points=[[0,0.5],[1,0.5]];portConstraint=eastwest;rotatable=0;whiteSpace=wrap;html=1;fontColor=#ffffff;strokeWidth=5;" parent="9" vertex="1">
                    <mxGeometry y="30" width="140" height="100" as="geometry"/>
                </mxCell>
                <mxCell id="15" value="" style="endArrow=none;html=1;strokeWidth=5;exitX=0.5;exitY=1;exitDx=0;exitDy=0;entryX=0.5;entryY=1;entryDx=0;entryDy=0;fillColor=#647687;strokeColor=#314354;" edge="1" parent="1" source="2" target="6">
                    <mxGeometry width="50" height="50" relative="1" as="geometry">
                        <mxPoint x="460" y="370" as="sourcePoint"/>
                        <mxPoint x="510" y="320" as="targetPoint"/>
                        <Array as="points">
                            <mxPoint x="340" y="490"/>
                            <mxPoint x="720" y="490"/>
                        </Array>
                    </mxGeometry>
                </mxCell>
            </root>
        </mxGraphModel>
    </diagram>
</mxfile>